<?xml version="1.0" standalone="no"?>
<!DOCTYPE svg PUBLIC "-//W3C//DTD SVG 20010904//EN"
 "http://www.w3.org/TR/2001/REC-SVG-20010904/DTD/svg10.dtd">
<svg version="1.0" xmlns="http://www.w3.org/2000/svg"
 width="300.000000pt" height="109.000000pt" viewBox="0 0 300.000000 109.000000"
 preserveAspectRatio="xMidYMid meet">
<metadata>
Created by potrace 1.10, written by Peter Selinger 2001-2011
</metadata>
<g transform="translate(0.000000,109.000000) scale(0.100000,-0.100000)"
fill="#ffffff" stroke="none">
<path d="M510 853 c-107 -12 -196 -77 -219 -159 -28 -101 -3 -220 59 -286 l40
-41 0 -84 0 -84 148 3 147 3 5 40 5 40 50 3 c62 4 75 19 75 89 0 51 1 53 32
61 41 10 46 33 17 74 -16 21 -19 33 -11 36 18 6 16 102 -2 102 -8 0 -17 15
-20 34 -9 47 -59 112 -104 135 -37 19 -140 43 -171 39 -9 0 -32 -3 -51 -5z
m86 -29 c26 -7 44 -43 44 -86 l0 -31 -23 21 c-13 12 -37 24 -54 28 -29 6 -42
25 -43 62 0 13 39 16 76 6z m-86 -25 c0 -11 5 -29 10 -40 19 -34 -26 -23 -48
13 -24 37 -21 48 14 48 18 0 24 -5 24 -21z m191 5 c37 -15 99 -81 99 -106 0
-4 -15 -8 -34 -8 -40 0 -51 -12 -61 -65 -9 -52 -20 -71 -45 -78 -18 -5 -19 -2
-14 33 3 21 2 46 -4 55 -6 12 -5 26 4 44 18 34 18 79 0 114 -18 33 -7 35 55
11z m-255 -21 c18 -25 17 -28 -10 -46 -23 -15 -25 -15 -41 9 -16 24 -15 26 2
40 24 18 33 17 49 -3z m-46 -75 c0 -15 24 -8 47 14 15 14 27 18 33 12 11 -11
2 -54 -11 -54 -12 0 -39 -55 -39 -79 0 -15 -15 -28 -51 -47 -61 -30 -69 -25
-69 51 0 61 13 111 37 137 17 19 17 19 35 -4 10 -13 18 -26 18 -30z m204 11
c23 -18 36 -49 21 -49 -13 0 -57 34 -66 51 -14 26 11 25 45 -2z m-54 -19 c0
-10 -6 -20 -12 -23 -21 -7 -38 4 -38 23 0 10 6 20 13 23 20 7 37 -4 37 -23z
m59 -46 c38 -48 24 -111 -29 -139 -42 -22 -66 -19 -101 13 -24 22 -31 36 -31
66 0 50 28 81 62 68 25 -9 25 -9 3 -16 -41 -13 -42 -85 -2 -107 30 -15 77 6
86 39 7 29 -5 52 -35 68 -16 8 -19 13 -10 22 18 18 35 14 57 -14z m201 1 c0
-8 -7 -15 -15 -15 -22 0 -38 -36 -25 -60 6 -11 16 -20 23 -20 7 0 6 -4 -3 -10
-18 -12 -60 -13 -77 -2 -9 6 -10 16 -3 38 5 16 12 41 15 57 5 24 10 27 45 27
29 0 40 -4 40 -15z m-242 -27 c16 -16 15 -53 -3 -68 -19 -16 -45 -10 -61 15
-26 39 31 86 64 53z m277 -28 c-2 -28 -10 -33 -40 -26 -16 4 -25 13 -25 26 0
16 7 20 33 20 27 0 33 -4 32 -20z m-405 -53 c0 -19 33 -47 66 -56 16 -4 31
-15 32 -25 3 -15 1 -16 -16 -7 -48 26 -98 7 -116 -43 -6 -17 -8 -17 -24 -3
-10 9 -28 34 -40 56 l-22 39 52 25 c63 30 68 31 68 14z m273 -13 c14 -5 14
-10 1 -46 -8 -22 -14 -53 -14 -69 0 -36 -7 -36 -52 1 -29 24 -42 29 -67 24
-28 -6 -31 -4 -31 20 0 14 6 26 13 26 6 0 35 11 62 24 54 26 66 29 88 20z
m126 -24 c26 -36 21 -50 -20 -50 l-29 0 0 -69 c0 -74 -6 -80 -68 -81 -26 0
-136 71 -145 94 -14 36 26 34 70 -4 43 -38 73 -28 73 24 0 51 19 96 40 96 11
0 22 5 25 10 11 18 31 11 54 -20z m-343 -62 c5 -8 2 -9 -9 -5 -23 9 -23 -29 1
-42 16 -10 16 -10 0 -11 -10 0 -18 -7 -18 -16 0 -9 8 -23 18 -30 16 -13 16
-13 0 -14 -22 0 -25 -40 -3 -40 8 0 15 -4 15 -10 0 -5 -7 -10 -15 -10 -8 0
-15 -9 -15 -20 0 -11 -4 -20 -10 -20 -9 0 -16 54 -11 90 1 8 3 42 5 75 2 33 4
61 5 63 3 7 31 0 37 -10z m-57 -88 c-5 -24 -7 -63 -3 -87 4 -29 3 -43 -5 -43
-6 0 -12 15 -12 33 -2 59 2 142 8 162 12 39 22 -19 12 -65z m107 65 c17 -13
17 -14 2 -15 -10 0 -18 -7 -18 -16 0 -9 8 -23 18 -30 16 -13 16 -13 0 -14 -22
0 -25 -40 -3 -40 8 0 15 -4 15 -10 0 -5 -7 -10 -15 -10 -8 0 -15 -9 -15 -20 0
-11 7 -20 15 -20 8 0 15 -4 15 -10 0 -11 -24 -13 -57 -4 -26 7 -31 24 -8 24 8
0 15 9 15 20 0 11 -7 20 -15 20 -8 0 -15 5 -15 11 0 6 7 9 15 5 11 -4 15 1 15
19 0 17 -6 25 -17 26 -17 1 -17 2 0 6 22 6 22 42 0 50 -15 6 -15 7 3 14 27 11
28 11 50 -6z m41 -57 c24 -22 32 -81 13 -93 -5 -3 -10 -15 -10 -26 0 -10 -4
-19 -10 -19 -5 0 -10 7 -10 15 0 8 -7 15 -15 15 -8 0 -15 5 -15 10 0 6 9 10
20 10 12 0 20 7 20 16 0 9 -9 18 -20 21 -11 3 -20 9 -20 14 0 5 9 9 20 9 29 0
22 30 -10 43 -12 4 -12 6 -1 6 8 1 25 -9 38 -21z m73 -48 c15 -8 16 -13 7 -35
-8 -16 -20 -25 -36 -25 -20 0 -21 2 -11 15 7 8 10 24 7 35 -6 22 5 25 33 10z"/>
<path d="M344 705 c-7 -18 3 -35 21 -35 21 0 28 19 15 35 -16 19 -29 19 -36 0z"/>
<path d="M365 490 c-9 -15 14 -40 31 -33 22 8 18 43 -5 43 -11 0 -23 -5 -26
-10z"/>
<path d="M1151 681 c-24 -44 -91 -206 -91 -218 0 -10 10 -13 32 -11 31 3 35 8
62 76 17 39 33 69 36 65 4 -5 19 -39 35 -78 15 -38 29 -76 32 -82 4 -10 -22
-13 -110 -13 -110 0 -115 -1 -121 -22 -3 -13 -6 -26 -6 -30 0 -5 74 -8 165 -8
128 0 165 3 165 13 0 16 -118 297 -132 315 -16 18 -56 15 -67 -7z"/>
<path d="M1655 686 c-43 -18 -93 -79 -101 -121 -14 -77 11 -139 77 -183 43
-29 74 -26 74 8 0 17 -8 29 -28 38 -39 19 -59 55 -59 105 1 42 22 71 77 103
14 7 16 17 11 37 -7 31 -10 31 -51 13z"/>
<path d="M1737 693 c-17 -17 -6 -53 21 -67 16 -8 34 -22 41 -30 15 -17 66 -22
76 -7 8 15 -55 82 -92 97 -37 16 -38 16 -46 7z"/>
<path d="M1984 691 c-2 -2 -4 -17 -4 -33 l0 -29 128 3 127 3 0 29 0 30 -123 0
c-68 1 -126 -1 -128 -3z"/>
<path d="M2335 690 c-8 -13 -9 -10 119 -184 103 -140 110 -147 140 -144 l31 3
3 154 c3 163 -2 185 -42 179 -20 -3 -21 -11 -26 -118 -3 -63 -8 -108 -11 -100
-4 8 -41 61 -83 118 -60 81 -81 102 -100 102 -14 0 -28 -4 -31 -10z"/>
<path d="M1982 528 l3 -33 115 0 115 0 0 30 0 30 -118 3 -118 3 3 -33z"/>
<path d="M1710 520 c0 -30 0 -30 56 -30 56 0 56 0 42 -22 -8 -13 -28 -30 -44
-39 -20 -10 -29 -24 -29 -40 0 -33 32 -36 74 -7 49 33 72 70 78 122 l6 46 -92
0 -91 0 0 -30z"/>
<path d="M2337 474 c-4 -4 -7 -32 -7 -61 l0 -54 33 3 c32 3 32 3 32 58 0 51
-2 55 -25 58 -14 2 -29 0 -33 -4z"/>
<path d="M1980 390 l0 -31 128 3 127 3 3 28 3 27 -130 0 -131 0 0 -30z"/>
</g>
</svg>
