<?xml version="1.0" standalone="no"?>
<!DOCTYPE svg PUBLIC "-//W3C//DTD SVG 20010904//EN"
 "http://www.w3.org/TR/2001/REC-SVG-20010904/DTD/svg10.dtd">
<svg version="1.0" xmlns="http://www.w3.org/2000/svg"
 width="443.000000pt" height="249.000000pt" viewBox="0 0 443.000000 249.000000"
 preserveAspectRatio="xMidYMid meet">

<g transform="translate(0.000000,249.000000) scale(0.100000,-0.100000)"
fill="#010101" stroke="none">
<path d="M1499 1971 l-29 -29 0 -342 c0 -377 2 -388 61 -409 18 -6 70 -11 117
-11 l85 0 -20 23 c-11 12 -26 32 -32 44 -14 27 -15 650 -1 687 5 14 18 34 30
46 l20 20 -101 0 c-98 0 -101 -1 -130 -29z"/>
<path d="M1801 1974 l24 -26 5 -354 5 -354 28 -27 27 -28 160 0 160 0 26 27
c26 25 28 35 40 180 7 84 13 162 14 173 0 11 3 15 9 10 5 -6 13 -81 19 -167
12 -172 21 -199 74 -217 17 -6 69 -11 116 -11 l86 0 -29 30 c-28 29 -29 34
-41 198 -7 92 -13 180 -13 195 -1 18 -12 40 -30 58 l-29 29 -152 0 c-155 0
-181 -5 -200 -41 -9 -16 -39 -301 -40 -376 0 -13 -4 -23 -10 -23 -6 0 -10 118
-10 335 0 430 6 415 -166 415 l-97 0 24 -26z"/>
<path d="M329 891 l-39 -39 0 -136 c0 -129 1 -136 20 -136 17 0 20 7 20 50 l0
50 90 0 90 0 0 -50 c0 -44 3 -50 21 -50 20 0 20 4 17 141 l-3 141 -37 34 c-33
29 -45 34 -89 34 -46 0 -55 -4 -90 -39z m149 -21 c26 -25 34 -54 30 -106 l-3
-39 -85 0 -85 0 -3 39 c-4 51 3 76 28 104 27 29 88 30 118 2z"/>
<path d="M927 923 c-4 -3 -7 -70 -7 -148 0 -129 2 -145 21 -169 16 -20 29 -26
59 -26 39 0 67 21 55 40 -4 7 -19 9 -36 5 -48 -11 -59 7 -59 91 l0 73 37 3
c26 2 39 8 41 20 2 13 -5 17 -35 20 -38 3 -38 3 -41 51 -3 44 -16 59 -35 40z"/>
<path d="M2187 924 c-11 -12 -8 -258 4 -293 13 -36 35 -51 76 -51 31 0 53 16
53 37 0 9 -13 13 -42 11 l-43 -3 -3 82 -3 82 33 3 c22 2 34 9 36 21 3 13 -4
17 -32 17 -35 0 -35 0 -38 47 -2 34 -8 49 -18 51 -9 1 -19 0 -23 -4z"/>
<path d="M2375 920 c-8 -13 3 -30 20 -30 14 0 27 24 18 34 -10 9 -31 7 -38 -4z"/>
<path d="M2968 890 l-40 -40 4 -101 3 -101 37 -34 c32 -29 45 -34 87 -34 80 0
131 56 131 143 0 32 -5 47 -16 51 -27 10 -109 7 -122 -6 -20 -20 6 -38 55 -38
l46 0 -7 -32 c-8 -43 -48 -78 -89 -78 -62 1 -87 40 -87 135 0 69 17 118 45
129 29 11 75 6 100 -10 23 -15 25 -15 32 1 11 29 -31 55 -89 55 -45 0 -54 -4
-90 -40z"/>
<path d="M610 750 c0 -93 15 -132 60 -155 35 -18 103 -20 131 -2 17 10 23 10
26 0 3 -7 11 -13 19 -13 11 0 14 24 14 125 0 100 -3 125 -14 125 -20 0 -26
-23 -26 -100 0 -62 -2 -70 -26 -89 -33 -26 -84 -27 -115 -2 -21 17 -25 30 -29
102 -4 70 -8 84 -22 87 -16 3 -18 -6 -18 -78z"/>
<path d="M1139 791 c-33 -33 -39 -45 -39 -81 0 -80 52 -130 135 -130 42 0 52
5 81 35 42 45 52 91 28 140 -22 48 -67 75 -123 75 -37 0 -49 -6 -82 -39z m146
-26 c36 -35 35 -96 -1 -124 -76 -60 -177 18 -132 102 28 53 92 64 133 22z"/>
<path d="M1410 704 c0 -114 2 -125 18 -122 14 3 17 16 20 83 3 90 24 125 72
125 52 0 65 -20 70 -117 5 -80 7 -88 25 -88 18 0 20 8 25 88 4 73 9 91 24 103
29 21 70 17 94 -9 19 -20 22 -35 22 -105 0 -75 2 -82 20 -82 19 0 20 7 20 91
0 90 0 91 -34 125 -41 41 -97 47 -139 14 -14 -11 -29 -20 -35 -20 -5 0 -17 9
-27 20 -20 22 -82 27 -115 10 -13 -7 -21 -7 -25 0 -3 5 -13 10 -21 10 -11 0
-14 -23 -14 -126z"/>
<path d="M1914 797 c-31 -28 -37 -41 -42 -85 -4 -50 -3 -53 36 -92 35 -35 45
-40 86 -40 26 0 57 5 68 11 15 8 22 8 28 -1 5 -7 15 -10 24 -7 21 8 22 123 2
172 -19 45 -69 75 -124 75 -34 0 -49 -6 -78 -33z m142 -31 c59 -50 20 -146
-60 -146 -60 0 -100 62 -76 119 21 53 91 67 136 27z"/>
<path d="M2374 817 c-2 -7 -3 -62 -2 -123 3 -94 5 -109 21 -112 15 -3 17 8 17
122 0 107 -2 126 -15 126 -9 0 -18 -6 -21 -13z"/>
<path d="M2522 810 c-70 -43 -78 -136 -17 -197 29 -29 40 -33 83 -33 39 0 57
5 79 24 21 19 25 27 16 36 -9 10 -17 9 -34 -4 -32 -22 -81 -20 -113 5 -20 16
-26 29 -26 60 0 74 73 113 136 73 20 -13 28 -14 37 -5 9 10 6 18 -16 37 -36
31 -98 32 -145 4z"/>
<path d="M3296 809 c-101 -80 -52 -229 75 -229 36 0 55 6 76 24 22 19 25 27
16 37 -9 9 -17 8 -37 -5 -37 -24 -88 -21 -114 7 -12 13 -22 26 -22 30 0 4 42
7 94 7 111 0 125 8 106 64 -18 54 -62 86 -119 86 -34 0 -56 -6 -75 -21z m130
-42 c39 -34 24 -47 -56 -47 -80 0 -95 13 -56 47 35 29 77 29 112 0z"/>
<path d="M3550 704 c0 -114 2 -125 18 -122 14 3 18 17 22 87 4 72 8 85 29 102
33 27 86 25 116 -6 22 -21 25 -33 25 -100 0 -60 3 -77 16 -82 9 -3 20 0 25 8
11 19 3 139 -12 172 -26 58 -126 87 -176 52 -19 -13 -22 -13 -27 0 -3 8 -12
15 -21 15 -13 0 -15 -19 -15 -126z"/>
</g>
</svg>
